<svg id="Camada_1" data-name="Camada 1" xmlns="http://www.w3.org/2000/svg" viewBox="0 0 920 920" fill="#089b9b"><defs><style>.cls-1{fill:#fff;}</style></defs><path class="cls-1" d="M758,880.89H-162v-920H758ZM392.54,668.64c1.18.11,1.84.22,2.5.22,41.33,0,82.66.1,124,0,15.22-.05,27-12.51,27-28.2q0-219.48,0-439c0-17-11.87-28.74-29-28.74h-438c-17.48,0-29,11.6-29,29.13q0,219,0,438c0,17,11.81,28.86,28.79,28.86H314.7V476.47H250.39v-74.7H315c0-2.34,0-4.3,0-6.26.36-22.14-.76-44.43,1.41-66.39C321,283,351.35,253.42,397,249.07c14-1.34,28.22-.47,42.33-.2,9.76.18,19.51,1.06,29.34,1.63v67c-1,.13-1.63.28-2.27.29-14.17,0-28.35-.45-42.49.18-20.06.9-30.06,9.23-30.93,28.39-.83,18.12-.36,36.29-.43,54.44,0,.26.37.53.86,1.2h72.88c-3.22,25-6.39,49.48-9.64,74.68H392.54Z" transform="translate(162 39.11)"/><path d="M392.54,668.64V476.72H456.6c3.25-25.2,6.42-49.72,9.64-74.68H393.36c-.49-.67-.86-.94-.86-1.2.07-18.15-.4-36.32.43-54.44.87-19.16,10.87-27.49,30.93-28.39,14.14-.63,28.32-.15,42.49-.18.64,0,1.28-.16,2.27-.29v-67c-9.83-.57-19.58-1.45-29.34-1.63-14.11-.27-28.34-1.14-42.33.2-45.6,4.35-76,33.92-80.54,80.05-2.17,22-1.05,44.25-1.41,66.39,0,2,0,3.92,0,6.26H250.39v74.7H314.7V668.88H78.81C61.83,668.87,50,657,50,640q0-219,0-438c0-17.53,11.56-29.12,29-29.13H517c17.08,0,29,11.75,29,28.74q0,219.49,0,439c0,15.69-11.73,28.15-27,28.2-41.33.13-82.66,0-124,0C394.38,668.86,393.72,668.75,392.54,668.64Z" transform="translate(162 39.11)"/></svg>