<svg id="Camada_1" data-name="Camada 1" xmlns="http://www.w3.org/2000/svg" viewBox="0 0 225 225" fill="#089b9b"><defs><style>.cls-1{fill:#fff;}</style></defs><path class="cls-1" d="M185,533.89v-225H410v225ZM297.79,337.63V337c-12,0-24-.14-36,0-26.6.36-48.33,21.86-48.61,48.44q-.39,36,0,72a49.06,49.06,0,0,0,48.28,48.23q36,.42,72,0a49.06,49.06,0,0,0,48.34-48.16q.46-36.26,0-72.5c-.34-24.16-18.43-44.7-42.59-47.16C325.54,336.49,311.61,337.63,297.79,337.63Z" transform="translate(-185 -308.89)"/><path d="M297.79,337.63c13.82,0,27.75-1.14,41.42.26,24.16,2.46,42.25,23,42.59,47.16s.32,48.33,0,72.5a49.06,49.06,0,0,1-48.34,48.16q-36,.41-72,0a49.06,49.06,0,0,1-48.28-48.23q-.45-36,0-72c.28-26.58,22-48.08,48.61-48.44,12-.17,24,0,36,0Zm.15,13.31c-11.33,0-22.66,0-34,0-21.58.06-36.85,15.25-36.9,36.75q-.08,33.74,0,67.48c.05,21.23,15.34,36.58,36.51,36.64q34,.1,68,0c20.9-.06,36.32-15.42,36.39-36.26q.12-34.23,0-68.47c-.08-20.59-15.47-36-36-36.13C320.6,350.88,309.27,350.94,297.94,350.94Z" transform="translate(-185 -308.89)"/><path class="cls-1" d="M297.94,350.94c11.33,0,22.66-.06,34,0,20.53.14,35.92,15.54,36,36.13q.13,34.23,0,68.47c-.07,20.84-15.49,36.2-36.39,36.26q-34,.1-68,0c-21.17-.06-36.46-15.41-36.51-36.64q-.08-33.74,0-67.48C227.11,366.2,242.38,351,264,351,275.28,350.91,286.61,350.94,297.94,350.94Zm-.51,31.91A38.54,38.54,0,1,0,336,421.57,38.38,38.38,0,0,0,297.43,382.85ZM343,386a10.26,10.26,0,0,0,10.63-10.15,10.5,10.5,0,0,0-10.27-10.64,10.31,10.31,0,0,0-10.52,10.26A10.07,10.07,0,0,0,343,386Z" transform="translate(-185 -308.89)"/><path d="M297.43,382.85A38.54,38.54,0,1,1,259,421.21,38.35,38.35,0,0,1,297.43,382.85Zm.08,14a24.58,24.58,0,1,0,24.56,24.83A24.47,24.47,0,0,0,297.51,396.81Z" transform="translate(-185 -308.89)"/><path d="M343,386a10.07,10.07,0,0,1-10.16-10.53,10.31,10.31,0,0,1,10.52-10.26,10.5,10.5,0,0,1,10.27,10.64A10.26,10.26,0,0,1,343,386Z" transform="translate(-185 -308.89)"/><path class="cls-1" d="M297.51,396.81a24.58,24.58,0,1,1-24.58,24.32A24.45,24.45,0,0,1,297.51,396.81Z" transform="translate(-185 -308.89)"/></svg>