<svg id="Camada_1" data-name="Camada 1" xmlns="http://www.w3.org/2000/svg" viewBox="0 0 384 384" fill="#089b9b"><defs><style>.cls-1{fill:#fff;}</style></defs><path class="cls-1" d="M490,612.89H106v-384H490ZM305.5,571.47c3.15-.25,9.27-.49,15.33-1.21,34.43-4.09,64.29-18.12,88.05-43.36C448.8,484.49,459.79,434.43,443.7,379c-20.94-72.22-92.65-118.45-167.78-109.09-38.73,4.83-70.83,22.53-95.32,52.87-40.16,49.75-44.23,118.4-10.91,173.24a7.3,7.3,0,0,1,.76,7.18c-7.64,20.28-15.11,40.62-22.57,61a13.26,13.26,0,0,0-1.08,5.76c.61,5.39,5.7,7.64,11.43,5.21,19.72-8.36,39.45-16.7,59.1-25.22,2.8-1.21,4.85-1.21,7.54.38C248.81,564.43,274.79,571.24,305.5,571.47Z" transform="translate(-106 -228.89)"/><path d="M305.5,571.47c-30.71-.23-56.69-7-80.63-21.19-2.69-1.59-4.74-1.59-7.54-.38-19.65,8.52-39.38,16.86-59.1,25.22-5.73,2.43-10.82.18-11.43-5.21a13.26,13.26,0,0,1,1.08-5.76c7.46-20.35,14.93-40.69,22.57-61a7.3,7.3,0,0,0-.76-7.18c-33.32-54.84-29.25-123.49,10.91-173.24,24.49-30.34,56.59-48,95.32-52.87C351.05,260.53,422.76,306.76,443.7,379c16.09,55.45,5.1,105.51-34.82,147.92-23.76,25.24-53.62,39.27-88.05,43.36C314.77,571,308.65,571.22,305.5,571.47ZM167.13,555.18c16.77-7.12,32.64-13.68,48.36-20.61,4.93-2.18,8.86-2,13.57.91,30.89,19.17,64.42,25.75,100.07,18.72,71.18-14,119.11-82.61,103.57-158.52-13.81-67.51-77.41-117.91-149-111.63-32.46,2.85-60.44,15.57-83.22,38.83A134.25,134.25,0,0,0,181,485.16c5.67,9.57,6.59,17.24,2.19,27.22C177.2,526,172.65,540.26,167.13,555.18Z" transform="translate(-106 -228.89)"/><path class="cls-1" d="M167.13,555.18c5.52-14.92,10.07-29.19,16.08-42.8,4.4-10,3.48-17.65-2.19-27.22a134.25,134.25,0,0,1,19.5-162.28c22.78-23.26,50.76-36,83.22-38.83,71.55-6.28,135.15,44.12,149,111.63,15.54,75.91-32.39,144.49-103.57,158.52-35.65,7-69.18.45-100.07-18.72-4.71-2.92-8.64-3.09-13.57-.91C199.77,541.5,183.9,548.06,167.13,555.18Zm175.39-47.51a53.19,53.19,0,0,0,6.41,0c19.23-2.56,31.58-14.39,40.05-30.77,5.18-10,2.24-18.38-7.37-24.23-7.45-4.54-14.85-9.15-22.34-13.63a98,98,0,0,0-9.24-4.87c-6.65-3.05-12.74-1.9-17.83,3.26-3.5,3.54-6.66,7.41-9.87,11.23-4.11,4.88-4.12,5-9.77,2-11.47-6.16-21.07-14.72-29.47-24.51A162.36,162.36,0,0,1,269.36,407c-3-4.82-2.53-5.3,1.81-8.92,3.73-3.11,7.5-6.2,11-9.54,5.86-5.54,7.09-12.07,3.44-19.36-1.29-2.56-2.54-5.15-4-7.6q-7.12-11.85-14.42-23.61c-5.43-8.77-13.7-11.48-23.17-7.27-10.29,4.58-18.29,12-24.6,21.23a39.85,39.85,0,0,0-7.05,26.92,103.23,103.23,0,0,0,7,29.71c13,31.77,34.21,56.84,62.36,76.14C300.36,497.47,320.44,506.4,342.52,507.67Z" transform="translate(-106 -228.89)"/><path d="M342.52,507.67c-22.08-1.27-42.16-10.2-60.73-22.94-28.15-19.3-49.39-44.37-62.36-76.14a103.23,103.23,0,0,1-7-29.71A39.85,39.85,0,0,1,219.44,352c6.31-9.25,14.31-16.65,24.6-21.23,9.47-4.21,17.74-1.5,23.17,7.27q7.28,11.76,14.42,23.61c1.47,2.45,2.72,5,4,7.6,3.65,7.29,2.42,13.82-3.44,19.36-3.53,3.34-7.3,6.43-11,9.54-4.34,3.62-4.85,4.1-1.81,8.92a162.36,162.36,0,0,0,13.73,19.05c8.4,9.79,18,18.35,29.47,24.51,5.65,3,5.66,2.91,9.77-2,3.21-3.82,6.37-7.69,9.87-11.23,5.09-5.16,11.18-6.31,17.83-3.26a98,98,0,0,1,9.24,4.87c7.49,4.48,14.89,9.09,22.34,13.63,9.61,5.85,12.55,14.22,7.37,24.23-8.47,16.38-20.82,28.21-40.05,30.77A53.19,53.19,0,0,1,342.52,507.67ZM226.58,374.84c1.36,6.82,2.11,13.58,4.09,19.94C239.42,422.9,256.4,445.47,279,464c16.78,13.76,35.3,24.21,57,28.11A35.7,35.7,0,0,0,375.5,470.9c.85-2,1.35-3.69-1-5.11q-13.79-8.24-27.47-16.66c-2.72-1.68-4.64-1.36-6.65,1.15-3.5,4.38-7.18,8.63-10.9,12.82-4.16,4.69-9.46,6.13-15.26,4A73.43,73.43,0,0,1,300,460.54c-11.93-7.46-22.06-17.06-31.11-27.8-5.95-7.08-11.51-14.43-14.83-23.19-3.62-9.54-2.47-14.22,5.14-20.89q5.2-4.56,10.64-8.85c2.49-2,2.86-3.91,1.15-6.66-5.39-8.67-10.76-17.37-15.83-26.23-1.83-3.18-3.77-3.55-6.65-1.91-8.09,4.61-14.74,10.74-18.84,19.17C228.12,367.44,227.6,371.23,226.58,374.84Z" transform="translate(-106 -228.89)"/><path class="cls-1" d="M226.58,374.84c1-3.61,1.54-7.4,3.13-10.66,4.1-8.43,10.75-14.56,18.84-19.17,2.88-1.64,4.82-1.27,6.65,1.91,5.07,8.86,10.44,17.56,15.83,26.23,1.71,2.75,1.34,4.7-1.15,6.66q-5.44,4.28-10.64,8.85c-7.61,6.67-8.76,11.35-5.14,20.89,3.32,8.76,8.88,16.11,14.83,23.19,9.05,10.74,19.18,20.34,31.11,27.8a73.43,73.43,0,0,0,14.15,6.58c5.8,2.11,11.1.67,15.26-4,3.72-4.19,7.4-8.44,10.9-12.82,2-2.51,3.93-2.83,6.65-1.15q13.67,8.44,27.47,16.66c2.38,1.42,1.88,3.15,1,5.11A35.7,35.7,0,0,1,336,492.07c-21.7-3.9-40.22-14.35-57-28.11-22.55-18.49-39.53-41.06-48.28-69.18C228.69,388.42,227.94,381.66,226.58,374.84Z" transform="translate(-106 -228.89)"/></svg>